<?xml version="1.0" standalone="no"?>
<!DOCTYPE svg PUBLIC "-//W3C//DTD SVG 20010904//EN"
 "http://www.w3.org/TR/2001/REC-SVG-20010904/DTD/svg10.dtd">
<svg version="1.0" xmlns="http://www.w3.org/2000/svg"
 width="1000.000000pt" height="1000.000000pt" viewBox="0 0 1000.000000 1000.000000"
 preserveAspectRatio="xMidYMid meet">
<metadata>
Created by potrace 1.14, written by Peter Selinger 2001-2017
</metadata>
<g transform="translate(0.000000,1000.000000) scale(0.100000,-0.100000)"
fill="#000000" stroke="none">
<path d="M3998 7404 c-3 -5 -9 -22 -12 -39 -3 -16 -8 -39 -11 -50 -47 -217
-67 -345 -69 -462 -1 -34 -5 -65 -9 -69 -8 -8 -10 4 -7 64 1 24 -3 42 -9 42
-13 0 -14 -114 -2 -144 5 -13 1 -26 -11 -38 -14 -14 -17 -25 -11 -41 8 -21 7
-120 -2 -162 -2 -11 -4 -33 -4 -48 -1 -16 -5 -26 -10 -23 -4 3 -7 17 -6 31 2
14 -1 25 -6 25 -5 0 -9 -6 -10 -12 0 -7 -2 -22 -4 -32 -6 -34 -8 -130 -2 -146
3 -8 8 -94 12 -190 3 -96 9 -247 12 -335 3 -88 6 -184 7 -212 0 -29 3 -53 7
-53 3 0 6 -62 6 -137 0 -76 3 -149 6 -163 3 -14 9 -59 12 -100 8 -103 15 -177
20 -230 9 -84 17 -155 20 -177 6 -40 -9 -25 -43 40 -18 34 -46 87 -63 117 -97
176 -192 361 -253 493 -127 274 -183 387 -232 469 -59 97 -137 139 -91 48 14
-27 12 -60 -4 -60 -5 0 -12 13 -15 29 -5 23 -17 35 -50 50 -24 12 -53 21 -64
21 -17 0 -18 -3 -9 -26 5 -15 7 -29 5 -32 -3 -2 -28 -4 -55 -4 -28 0 -51 -1
-51 -2 0 0 10 -26 22 -56 23 -59 23 -58 32 -320 4 -96 9 -189 11 -206 2 -17 6
-66 10 -110 9 -108 20 -217 31 -289 32 -222 39 -247 75 -277 17 -15 52 -37 77
-50 59 -29 69 -39 88 -84 20 -47 12 -77 -26 -104 -17 -12 -30 -27 -30 -34 0
-7 -11 -19 -24 -26 -36 -19 -38 -33 -11 -105 14 -36 23 -65 20 -65 -6 0 73
-188 102 -242 15 -27 31 -48 37 -48 7 0 24 -14 39 -31 35 -40 44 -32 18 17
-24 44 -19 57 9 26 21 -23 36 -30 25 -12 -3 6 -2 10 4 10 6 0 13 -11 17 -24 6
-26 30 -41 39 -26 7 11 -2 67 -15 90 -5 9 -11 28 -14 41 -3 13 -15 60 -26 104
-42 169 -92 443 -115 640 -2 17 -7 50 -11 75 -4 25 -8 54 -9 65 -4 36 -16 119
-20 145 -2 14 -7 50 -10 80 -11 102 -16 145 -21 163 -3 10 0 17 8 17 7 0 38
-48 68 -107 89 -173 310 -555 432 -748 14 -22 27 -44 29 -50 8 -21 108 -171
124 -185 9 -8 31 -29 48 -46 29 -27 79 -50 100 -46 4 1 7 -2 7 -6 0 -11 51
-36 68 -33 7 1 22 9 32 18 17 15 18 19 4 51 -18 44 -18 45 5 37 15 -5 24 1 35
24 9 16 14 36 12 43 -3 7 -7 33 -10 58 -4 25 -11 70 -16 102 -6 31 -10 60 -9
65 1 4 0 10 -1 13 -1 3 -3 28 -4 55 -2 28 -5 57 -8 65 -9 22 -31 294 -43 515
-3 55 -7 141 -10 190 -26 464 -33 1020 -23 1753 2 138 0 252 -5 252 -4 0 -5 5
-2 10 3 6 -3 10 -14 10 -21 0 -29 15 -12 22 9 3 14 34 12 76 -1 18 -7 22 -36
22 -21 0 -35 -5 -36 -12 -7 -100 -18 -160 -36 -191 -29 -48 -41 -45 -38 10 4
52 8 77 26 139 9 34 8 47 -4 69 -8 15 -16 24 -19 19z m132 -190 c0 -8 -5 -12
-10 -9 -6 4 -8 11 -5 16 9 14 15 11 15 -7z m-85 -544 c3 -5 1 -10 -4 -10 -6 0
-11 5 -11 10 0 6 2 10 4 10 3 0 8 -4 11 -10z m-6 -110 c1 -27 -2 -50 -7 -50
-4 0 -8 23 -8 50 0 28 3 50 6 50 4 0 7 -22 9 -50z m-16 -191 c-5 -5 -8 10 -7
34 3 61 7 68 11 18 3 -24 0 -48 -4 -52z m-173 47 c0 -3 -4 -8 -10 -11 -5 -3
-10 -1 -10 4 0 6 5 11 10 11 6 0 10 -2 10 -4z m222 -36 c3 -16 1 -30 -4 -30
-4 0 -8 14 -8 30 0 17 2 30 4 30 2 0 6 -13 8 -30z m-235 -12 c-3 -8 -6 -5 -6
6 -1 11 2 17 5 13 3 -3 4 -12 1 -19z m192 -165 c0 -137 -2 -145 -14 -113 -13
32 -14 26 -10 -75 3 -60 8 -140 11 -177 10 -105 12 -138 13 -211 1 -49 4 -66
13 -61 7 5 8 3 2 -7 -12 -20 -14 -38 -3 -45 5 -3 9 5 10 18 1 23 1 23 8 -2 9
-28 4 -43 -10 -35 -5 4 -9 -1 -9 -9 0 -22 4 -31 11 -29 4 1 6 -53 5 -121 0
-68 -4 -122 -8 -119 -5 2 -8 9 -8 15 0 6 -7 19 -15 28 -9 10 -15 42 -17 88 -3
60 -6 72 -20 72 -12 0 -16 -5 -12 -17 5 -15 4 -15 -4 -4 -7 10 -7 21 -1 33 7
13 6 18 -2 18 -8 0 -8 4 -1 13 7 8 9 107 7 295 -2 164 0 284 6 288 5 3 9 10 9
16 0 7 -4 7 -12 0 -10 -8 -14 5 -16 56 -1 37 -7 71 -13 77 -8 7 -10 -6 -6 -48
4 -42 2 -57 -6 -54 -7 2 -11 15 -11 28 1 13 2 44 3 69 1 33 4 41 11 30 7 -11
10 -7 10 18 0 17 -4 32 -10 32 -5 0 -10 5 -10 11 0 5 5 7 10 4 14 -9 13 8 -2
23 -7 7 -10 12 -7 13 26 5 51 4 54 -1 2 -4 5 -32 7 -63 2 -31 6 -57 10 -57 9
0 9 0 10 78 0 54 4 72 14 72 2 0 4 -66 3 -147z m-83 -178 c0 -19 -2 -35 -6
-35 -6 0 -6 56 -1 68 4 8 6 -2 7 -33z m169 15 c3 -5 1 -10 -4 -10 -6 0 -11 5
-11 10 0 6 2 10 4 10 3 0 8 -4 11 -10z m2 -52 c-3 -7 -5 -2 -5 12 0 14 2 19 5
13 2 -7 2 -19 0 -25z m-167 -34 c0 -8 -5 -12 -10 -9 -6 4 -8 11 -5 16 9 14 15
11 15 -7z m167 -6 c-3 -8 -6 -5 -6 6 -1 11 2 17 5 13 3 -3 4 -12 1 -19z m-170
-65 c-3 -10 -5 -2 -5 17 0 19 2 27 5 18 2 -10 2 -26 0 -35z m0 -60 c-3 -10 -5
-4 -5 12 0 17 2 24 5 18 2 -7 2 -21 0 -30z m185 -233 c3 -52 2 -86 -2 -75 -8
21 -14 183 -7 175 3 -3 7 -48 9 -100z m-85 -2 c-3 -7 -5 -2 -5 12 0 14 2 19 5
13 2 -7 2 -19 0 -25z m97 -113 c3 -9 0 -15 -9 -15 -9 0 -12 6 -9 15 4 8 7 15
9 15 2 0 5 -7 9 -15z m-642 -135 c30 -58 74 -140 98 -184 24 -43 38 -77 31
-75 -19 7 -165 282 -186 349 -12 40 0 22 57 -90z m640 52 c2 -29 1 -49 -3 -45
-8 8 -12 43 -10 82 2 40 10 19 13 -37z m8 -92 c0 -5 -4 -10 -10 -10 -5 0 -10
5 -10 10 0 6 5 10 10 10 6 0 10 -4 10 -10z m4 -87 c2 -32 6 -101 10 -153 4
-65 3 -88 -3 -73 -6 13 -10 42 -11 65 0 24 -2 59 -4 78 -9 76 -10 157 0 148 3
-4 7 -33 8 -65z m-947 -50 c-3 -10 -5 -2 -5 17 0 19 2 27 5 18 2 -10 2 -26 0
-35z m383 -63 c29 -61 50 -113 46 -117 -3 -3 -8 -4 -10 -2 -14 14 -98 183
-102 204 -9 52 14 21 66 -85z m478 25 c-3 -3 -9 2 -12 12 -6 14 -5 15 5 6 7
-7 10 -15 7 -18z m-848 -22 c0 -32 -7 -27 -14 10 -3 16 -1 25 5 22 5 -4 9 -18
9 -32z m834 14 c7 -6 16 -28 19 -47 7 -33 6 -34 -9 -18 -10 9 -18 25 -19 35 0
10 -4 24 -9 31 -9 16 2 16 18 -1z m-41 -27 c3 -11 1 -18 -4 -14 -5 3 -9 12 -9
20 0 20 7 17 13 -6z m-861 -55 c3 -14 1 -28 -3 -31 -5 -3 -9 3 -10 13 0 10 -2
26 -4 36 -2 9 0 15 5 12 4 -2 10 -16 12 -30z m78 -7 c7 -18 14 -53 15 -78 1
-25 8 -70 14 -100 6 -30 13 -75 16 -99 3 -24 7 -47 9 -50 3 -4 7 -26 11 -50 4
-30 3 -41 -5 -36 -6 4 -18 4 -27 1 -12 -5 -13 -9 -3 -21 14 -17 10 -18 -23 -6
-24 9 -42 62 -53 159 -2 20 -9 63 -15 96 -6 32 -8 60 -6 63 3 2 10 -29 17 -69
6 -40 18 -93 26 -118 7 -25 12 -34 9 -20 -2 14 -7 61 -10 105 -4 44 -9 83 -11
87 -2 3 2 13 10 20 17 18 9 71 -9 64 -8 -3 -11 2 -9 12 16 84 25 92 44 40z
m336 -75 c-5 -5 -46 65 -46 80 0 7 12 -8 25 -32 14 -24 24 -46 21 -48z m-403
22 c4 -8 2 -17 -3 -20 -6 -4 -10 3 -10 14 0 25 6 27 13 6z m7 -45 c0 -5 -2
-10 -4 -10 -3 0 -8 5 -11 10 -3 6 -1 10 4 10 6 0 11 -4 11 -10z m514 -79 c-8
-8 -21 44 -15 64 4 15 7 10 12 -20 4 -22 5 -42 3 -44z m33 -133 c-3 -8 -6 -5
-6 6 -1 11 2 17 5 13 3 -3 4 -12 1 -19z m98 -171 c8 -12 15 -26 15 -32 0 -5
-18 19 -40 55 -22 36 -40 72 -40 80 0 8 12 -7 26 -34 13 -26 31 -58 39 -69z
m-18 81 c-3 -8 -6 -5 -6 6 -1 11 2 17 5 13 3 -3 4 -12 1 -19z m53 -32 c0 -3
-4 -8 -10 -11 -5 -3 -10 -1 -10 4 0 6 5 11 10 11 6 0 10 -2 10 -4z m-513 -520
c-3 -7 0 -20 6 -27 10 -11 9 -11 -5 0 -15 11 -15 41 -1 41 3 0 3 -6 0 -14z
m823 10 c0 -3 -4 -8 -10 -11 -5 -3 -10 -1 -10 4 0 6 5 11 10 11 6 0 10 -2 10
-4z m56 -73 c-4 -4 -11 -1 -15 6 -7 11 -10 11 -17 0 -6 -10 -10 -7 -14 11 -10
39 0 45 28 16 14 -14 23 -29 18 -33z m-846 -17 c0 -3 -4 -8 -10 -11 -5 -3 -10
-1 -10 4 0 6 5 11 10 11 6 0 10 -2 10 -4z m71 -83 c0 -5 2 -16 4 -26 2 -9 0
-15 -5 -12 -12 7 -19 45 -9 45 5 0 9 -3 10 -7z"/>
<path d="M3993 6170 c-1 -11 2 -20 8 -20 5 0 9 9 9 20 0 11 -4 20 -8 20 -4 0
-8 -9 -9 -20z"/>
<path d="M3984 5935 c4 -60 9 -141 12 -180 3 -38 6 -108 8 -154 1 -48 7 -86
13 -88 6 -2 9 9 8 29 -4 36 -16 201 -20 258 -10 156 -18 236 -22 240 -3 3 -3
-44 1 -105z"/>
<path d="M7461 7382 c-8 -16 -131 -370 -131 -378 0 -6 -61 2 -81 10 -17 7 -41
-30 -45 -72 -2 -13 -7 -29 -12 -35 -11 -14 -91 -243 -98 -281 -2 -14 -9 -37
-14 -52 -6 -14 -8 -30 -4 -35 6 -11 27 -12 21 -1 -3 4 -1 16 4 27 18 46 8 -31
-12 -85 -11 -30 -21 -59 -22 -65 -15 -53 -61 -176 -68 -180 -12 -8 -11 2 1 26
7 12 7 19 1 19 -6 0 -13 -16 -17 -36 -4 -22 -14 -38 -26 -43 -16 -6 -43 -77
-128 -332 -102 -302 -135 -390 -125 -331 7 38 -14 14 -26 -31 -6 -23 -12 -46
-13 -52 -17 -83 -161 -493 -229 -651 -57 -131 -197 -405 -222 -432 -1 -1 -23
6 -48 17 -48 21 -104 75 -123 120 -10 24 -40 141 -49 196 -25 143 -30 225 -13
225 5 0 4 9 -2 19 -13 24 -13 58 -1 63 6 2 11 48 12 103 2 55 5 104 7 109 3 5
6 25 7 45 1 20 8 77 15 128 10 77 15 91 29 85 13 -5 14 -3 3 10 -7 9 -10 30
-7 54 14 99 18 119 32 151 8 19 13 42 12 51 -1 10 3 35 9 57 6 22 13 58 16 80
15 116 26 150 53 172 22 18 25 25 15 35 -9 9 -8 16 5 30 9 10 18 26 19 36 1 9
6 47 10 85 7 64 6 67 -15 67 -13 0 -21 -6 -21 -17 0 -10 -4 -25 -10 -33 -8
-12 -14 -12 -46 3 -32 16 -36 21 -31 46 9 45 -3 45 -44 1 -30 -32 -43 -39 -61
-35 -13 3 -36 2 -51 -4 -25 -10 -27 -8 -33 25 -8 43 -16 48 -41 26 -18 -15
-54 -74 -53 -87 0 -3 -6 -18 -14 -34 -45 -85 -123 -386 -141 -533 -3 -27 -8
-69 -11 -95 -23 -175 -34 -533 -20 -688 3 -38 8 -106 11 -150 6 -103 13 -138
36 -200 22 -59 49 -92 84 -101 13 -3 27 -16 31 -27 16 -55 90 -187 131 -235
89 -104 197 -127 316 -67 31 16 57 33 57 37 0 5 11 6 24 2 67 -17 170 94 306
330 58 101 229 442 274 546 11 25 38 86 61 135 80 174 305 812 440 1250 21 66
40 124 42 129 3 4 15 -4 28 -20 l22 -27 102 37 c56 21 105 36 107 33 3 -2 -8
-33 -24 -68 -16 -35 -39 -86 -52 -114 -12 -27 -31 -70 -42 -95 -79 -174 -253
-620 -263 -671 -2 -9 -12 -47 -23 -85 -11 -38 -23 -85 -26 -105 -5 -28 -14
-40 -45 -57 -22 -12 -53 -38 -70 -57 -30 -35 -31 -37 -16 -71 8 -19 23 -48 34
-63 11 -16 18 -31 15 -33 -2 -3 -7 -14 -9 -24 -2 -11 -16 -57 -30 -104 -14
-47 -27 -96 -29 -110 -3 -23 -24 -113 -62 -265 -8 -33 -17 -77 -20 -98 -3 -21
-9 -48 -13 -60 -11 -29 -14 -165 -6 -211 4 -21 13 -36 21 -36 8 0 13 3 13 8
-5 29 3 50 18 48 13 -1 18 8 20 32 5 67 4 61 28 172 2 8 4 15 5 15 1 0 3 11 5
25 7 51 75 294 85 304 5 5 11 8 12 5 2 -2 13 -23 25 -45 22 -41 22 -42 2 -47
-11 -3 -18 -9 -17 -14 1 -4 -4 -24 -11 -43 -8 -19 -15 -43 -17 -53 -2 -10 -11
-31 -19 -48 -9 -16 -13 -29 -11 -29 3 0 -4 -25 -14 -55 -10 -30 -17 -55 -14
-55 2 0 -2 -13 -11 -30 -9 -16 -13 -30 -11 -30 3 0 -1 -21 -9 -47 -18 -59 -18
-56 0 -49 9 3 15 0 15 -9 0 -8 -5 -15 -11 -15 -6 0 -9 -21 -7 -52 2 -39 7 -53
18 -53 10 0 15 13 17 40 1 22 4 49 7 60 2 11 5 28 5 39 1 15 4 16 16 6 11 -9
12 -17 4 -32 -6 -11 -8 -26 -5 -34 3 -8 2 -14 -3 -14 -13 0 -19 -46 -9 -64 7
-12 13 -13 32 -5 17 8 27 27 41 82 24 96 219 675 259 772 7 17 19 45 26 63 11
28 17 32 49 31 54 -2 61 0 61 16 0 9 -6 12 -15 9 -8 -4 -15 -1 -15 4 0 11 32
25 46 20 10 -3 127 56 165 82 21 15 89 26 89 14 0 -2 -35 -21 -77 -41 -43 -21
-84 -44 -91 -50 -7 -7 -18 -13 -23 -13 -5 0 -9 -4 -9 -9 0 -16 77 15 232 93
81 41 147 69 145 63 -1 -7 10 -13 24 -15 20 -2 28 2 32 18 3 12 10 20 15 17 4
-4 16 3 26 14 10 12 24 18 35 14 11 -3 26 4 43 22 54 60 207 183 226 183 7 0
12 5 12 11 0 6 7 9 15 6 8 -4 17 -2 20 3 4 6 -1 10 -10 10 -9 0 -13 5 -10 11
4 6 14 8 22 5 8 -3 11 -2 8 4 -12 20 184 177 197 157 5 -7 -1 -18 -14 -27 -12
-8 -46 -34 -75 -58 -28 -23 -62 -46 -74 -50 -15 -6 -23 -18 -23 -35 -2 -33 0
-32 144 83 130 103 253 213 320 284 25 26 60 64 78 83 43 46 104 137 132 196
17 37 23 67 24 135 1 89 -12 119 -27 61 -8 -32 -19 -32 -23 -1 -2 9 -6 32 -9
50 -3 19 -2 39 4 45 11 14 6 20 -124 161 -96 104 -154 136 -345 189 -30 9 -68
18 -85 21 -101 19 -159 26 -174 21 -10 -3 -44 1 -77 10 -32 8 -77 13 -99 10
-22 -3 -68 -7 -103 -10 -34 -2 -88 -9 -120 -15 -31 -6 -70 -13 -87 -15 -33 -5
-54 -9 -130 -26 -143 -31 -224 -53 -259 -70 -38 -18 -82 -17 -71 1 6 10 66
222 110 390 38 143 35 177 -13 159 -33 -12 -53 -36 -45 -55 3 -8 1 -14 -4 -14
-12 0 -33 -45 -33 -70 0 -10 -4 -21 -9 -24 -5 -4 -7 7 -5 24 5 26 2 30 -19 30
-30 0 -44 28 -19 38 23 9 29 107 7 116 -8 3 -19 -2 -24 -12z m-15 -250 c-18
-16 -18 -16 -6 6 6 13 14 21 18 18 3 -4 -2 -14 -12 -24z m74 21 c0 -5 -3 -18
-6 -30 -7 -27 -24 -31 -19 -5 2 9 4 23 4 30 1 13 21 17 21 5z m-112 -153 c-6
-25 -14 -48 -17 -52 -8 -9 -6 30 3 55 3 9 8 24 11 33 11 35 13 6 3 -36z m-218
-205 c0 -8 -4 -15 -10 -15 -5 0 -7 7 -4 15 4 8 8 15 10 15 2 0 4 -7 4 -15z
m903 6 c4 -1 7 -8 7 -16 0 -21 -64 -20 -84 1 -24 23 -20 26 27 20 23 -3 45 -5
50 -5z m139 -13 c-6 -7 -28 -12 -49 -11 -47 2 -45 1 -40 11 3 4 26 8 52 10 38
2 45 0 37 -10z m-410 -7 c3 0 4 -10 1 -21 -7 -26 -64 -56 -145 -75 -76 -18
-111 -20 -88 -5 13 9 70 27 110 35 8 2 28 10 44 19 16 8 33 13 38 10 4 -3 8 0
8 7 0 7 -9 9 -22 6 -75 -18 -144 -40 -164 -54 -13 -8 -24 -12 -24 -9 0 4 -25
-14 -56 -39 -31 -25 -59 -44 -61 -41 -2 2 2 19 10 38 13 30 25 39 95 67 135
55 205 72 254 62z m-655 -53 c-3 -8 -6 -5 -6 6 -1 11 2 17 5 13 3 -3 4 -12 1
-19z m-24 -68 c-3 -11 -7 -20 -9 -20 -2 0 -4 9 -4 20 0 11 4 20 9 20 5 0 7 -9
4 -20z m1132 -16 c6 -13 18 -20 30 -17 53 9 125 5 147 -8 17 -11 48 -14 115
-12 235 6 369 -99 334 -259 -14 -62 -104 -144 -341 -309 -418 -292 -560 -381
-706 -443 -55 -22 -154 -44 -154 -34 0 9 188 467 235 573 54 121 185 438 191
459 16 64 124 100 149 50z m-715 -29 c0 -9 -82 -56 -92 -53 -6 2 11 16 38 30
57 31 54 29 54 23z m-277 -50 c-7 -21 -13 -19 -13 6 0 11 4 18 10 14 5 -3 7
-12 3 -20z m1897 -302 c-42 -73 -47 -89 -30 -95 17 -5 -32 -61 -201 -230 -161
-160 -204 -196 -197 -161 2 10 9 17 15 16 12 -2 27 43 19 55 -2 4 17 20 44 35
61 34 160 124 160 144 0 9 6 13 14 10 9 -4 34 15 64 48 67 72 71 79 39 71 -25
-6 -25 -5 -16 26 5 18 9 34 9 35 0 2 6 3 13 3 6 0 18 12 24 28 14 31 72 97 79
90 2 -3 -14 -37 -36 -75z m-3100 -3 c0 -5 -5 -10 -11 -10 -5 0 -7 5 -4 10 3 6
8 10 11 10 2 0 4 -4 4 -10z m-240 -157 c0 -5 -5 -15 -10 -23 -8 -12 -10 -11
-10 8 0 12 5 22 10 22 6 0 10 -3 10 -7z m-19 -66 c-1 -12 -15 -9 -19 4 -3 6 1
10 8 8 6 -3 11 -8 11 -12z m1873 -2 c3 -8 1 -15 -4 -15 -6 0 -10 7 -10 15 0 8
2 15 4 15 2 0 6 -7 10 -15z m966 -50 c-7 -9 -15 -13 -19 -10 -3 3 1 10 9 15
21 14 24 12 10 -5z m-1040 -131 c-38 -81 -50 -116 -46 -138 5 -23 3 -27 -10
-22 -13 5 -15 1 -11 -21 3 -15 1 -35 -3 -44 -5 -9 -11 -29 -14 -45 -3 -16 -19
-41 -36 -57 -32 -30 -63 -84 -74 -129 -3 -16 -11 -28 -16 -28 -11 0 7 55 28
88 8 12 12 25 9 28 -3 3 4 27 15 52 11 26 20 62 20 79 0 18 4 30 9 27 5 -3 9
5 9 18 0 32 49 153 72 177 14 16 17 29 12 62 -5 30 -4 40 4 35 6 -4 9 -13 5
-21 -3 -8 -1 -15 4 -15 12 0 53 55 53 72 0 8 3 9 10 2 7 -7 -5 -45 -40 -120z
m-1820 99 c0 -24 -17 -49 -27 -40 -4 5 -1 12 6 17 8 4 11 15 8 24 -4 9 -2 16
3 16 6 0 10 -8 10 -17z m2807 -2 c-7 -8 -13 -9 -15 -3 -4 14 -31 5 -62 -22
-23 -20 -24 -20 -10 -1 24 34 41 44 70 42 23 -2 26 -5 17 -16z m-2830 -66 c0
-8 -4 -15 -9 -15 -10 0 -11 14 -1 23 9 10 10 9 10 -8z m1719 -83 c-20 -49 -36
-93 -36 -98 0 -5 -5 -26 -11 -48 -7 -26 -14 -35 -21 -28 -9 9 -3 30 83 251 5
13 12 21 15 18 3 -3 -10 -46 -30 -95z m1114 88 c0 -5 -7 -10 -16 -10 -8 0 -12
5 -9 10 3 6 10 10 16 10 5 0 9 -4 9 -10z m59 -13 c-2 -2 -30 -24 -62 -50 -55
-44 -86 -60 -72 -37 3 6 13 10 21 10 11 0 13 6 9 20 -5 17 2 24 46 45 29 13
55 22 58 20 2 -3 2 -6 0 -8z m-1029 -57 c0 -5 -4 -10 -10 -10 -5 0 -10 5 -10
10 0 6 5 10 10 10 6 0 10 -4 10 -10z m-1897 -71 c-5 -5 -7 7 -4 29 5 34 6 35
9 8 2 -16 0 -32 -5 -37z m0 -31 c-4 -7 -10 -31 -13 -53 -3 -22 -8 -35 -11 -30
-8 15 10 95 22 95 6 0 7 -6 2 -12z m1857 8 c0 -3 -4 -8 -10 -11 -5 -3 -10 -1
-10 4 0 6 5 11 10 11 6 0 10 -2 10 -4z m-1765 -96 c-3 -11 -9 -32 -11 -47 -3
-15 -8 -30 -11 -33 -7 -6 5 79 13 92 10 15 15 8 9 -12z m1572 -42 c-3 -8 -6
-5 -6 6 -1 11 2 17 5 13 3 -3 4 -12 1 -19z m33 7 c0 -8 -4 -15 -10 -15 -5 0
-7 7 -4 15 4 8 8 15 10 15 2 0 4 -7 4 -15z m22 -7 c-7 -7 -12 -8 -12 -2 0 14
12 26 19 19 2 -3 -1 -11 -7 -17z m-72 -39 c0 -11 -4 -18 -10 -14 -5 3 -7 12
-3 20 7 21 13 19 13 -6z m-565 -185 c-36 -87 -72 -173 -80 -189 -16 -35 -38
-88 -39 -95 -1 -3 -39 -81 -84 -174 -52 -105 -87 -165 -93 -159 -8 8 24 86
144 344 19 42 49 110 67 150 17 41 35 83 41 94 5 11 18 45 28 75 11 30 20 49
20 43 1 -7 6 -13 11 -13 6 0 9 3 8 8 -3 11 32 86 37 80 3 -3 -24 -76 -60 -164z
m541 99 c-11 -11 -19 6 -11 24 8 17 8 17 12 0 3 -10 2 -21 -1 -24z m-410 -10
c-2 -21 -15 -68 -30 -104 -14 -36 -26 -71 -26 -77 0 -7 -4 -12 -9 -12 -5 0 -7
9 -4 20 7 27 -14 26 -22 -1 -4 -11 -9 -18 -12 -15 -10 10 19 76 40 92 12 9 17
18 11 20 -10 4 35 114 48 114 3 0 5 -17 4 -37z m-1143 -49 c3 -4 -1 -17 -9
-30 -9 -13 -13 -28 -9 -34 3 -5 1 -10 -6 -10 -8 0 -8 -4 1 -15 7 -8 8 -15 3
-15 -6 0 -10 -19 -11 -42 0 -24 -1 -45 -2 -48 -6 -16 -4 -92 2 -96 4 -3 5 -11
1 -19 -3 -8 0 -15 6 -15 6 0 11 8 11 18 0 10 6 19 14 19 11 0 13 -20 12 -94
-2 -88 -15 -142 -17 -75 -2 40 -3 44 -11 57 -4 6 -5 23 -4 38 2 14 0 26 -3 25
-35 -4 -38 2 -35 80 4 122 17 230 31 255 5 9 17 9 26 1z m1637 -19 c0 -8 -4
-15 -10 -15 -5 0 -7 7 -4 15 4 8 8 15 10 15 2 0 4 -7 4 -15z m-1755 -5 c3 -5
1 -10 -4 -10 -6 0 -11 5 -11 10 0 6 2 10 4 10 3 0 8 -4 11 -10z m1628 -15 c-3
-9 -8 -14 -10 -11 -3 3 -2 9 2 15 9 16 15 13 8 -4z m707 -10 c0 -16 -34 -37
-67 -41 -33 -3 -19 12 17 20 17 3 33 12 36 21 8 19 14 19 14 0z m-613 -37 c8
-9 2 -20 -18 -36 -31 -25 -35 -19 -19 22 10 29 22 33 37 14z m520 -44 c-7 -7
-37 7 -37 17 0 6 9 5 21 -1 11 -7 19 -14 16 -16z m-527 -14 c0 -5 -4 -10 -10
-10 -5 0 -10 5 -10 10 0 6 5 10 10 10 6 0 10 -4 10 -10z m-560 -20 c0 -5 -5
-10 -11 -10 -5 0 -7 5 -4 10 3 6 8 10 11 10 2 0 4 -4 4 -10z m340 -6 c0 -2 -7
-4 -15 -4 -8 0 -15 4 -15 10 0 5 7 7 15 4 8 -4 15 -8 15 -10z m-1513 -101 c-2
-16 -4 -3 -4 27 0 30 2 43 4 28 2 -16 2 -40 0 -55z m1144 44 c-8 -8 -11 -7
-11 4 0 9 3 19 7 23 4 4 9 2 11 -4 3 -7 -1 -17 -7 -23z m49 23 c0 -5 -4 -10
-10 -10 -5 0 -10 5 -10 10 0 6 5 10 10 10 6 0 10 -4 10 -10z m-20 -40 c0 -5
-5 -10 -11 -10 -5 0 -7 5 -4 10 3 6 8 10 11 10 2 0 4 -4 4 -10z m-1030 -21 c0
-5 -4 -9 -10 -9 -5 0 -10 7 -10 16 0 8 5 12 10 9 6 -3 10 -10 10 -16z m813
-14 c-3 -9 -8 -14 -10 -11 -3 3 -2 9 2 15 9 16 15 13 8 -4z m684 -7 c-3 -8 -6
-5 -6 6 -1 11 2 17 5 13 3 -3 4 -12 1 -19z m34 -38 c-10 -24 -10 -24 -7 5 8
58 9 60 13 40 2 -12 -1 -32 -6 -45z m-576 -10 c-10 -22 -20 -38 -23 -35 -3 3
3 23 13 45 10 22 20 38 23 35 3 -3 -3 -23 -13 -45z m-1099 -10 c-2 -22 0 -43
4 -45 4 -2 7 -37 8 -77 0 -40 3 -108 6 -150 4 -43 4 -78 1 -78 -10 0 -29 55
-31 90 -1 19 -3 46 -4 60 -1 14 -1 30 0 35 1 6 2 50 2 100 0 82 3 105 13 105
2 0 2 -18 1 -40z m1620 -40 c-17 -71 -16 -67 -16 -90 0 -11 -3 -20 -7 -20 -10
0 -9 56 2 95 5 16 9 41 11 55 3 35 3 35 13 25 6 -6 5 -31 -3 -65z m-563 45
c-3 -9 -8 -14 -10 -11 -3 3 -2 9 2 15 9 16 15 13 8 -4z m594 -85 c-5 -33 -12
-58 -14 -56 -8 8 8 126 16 121 4 -2 3 -31 -2 -65z m-591 14 c-4 -9 -9 -15 -11
-12 -3 3 -3 13 1 22 4 9 9 15 11 12 3 -3 3 -13 -1 -22z m514 -88 c0 -17 -22
-56 -31 -56 -7 0 -8 7 -4 18 4 9 8 23 8 30 0 11 27 19 27 8z m65 -5 c3 -5 1
-12 -5 -16 -5 -3 -10 1 -10 9 0 18 6 21 15 7z m-82 -246 c-3 -9 -8 -14 -10
-11 -3 3 -2 9 2 15 9 16 15 13 8 -4z m57 -9 c0 -2 -7 -9 -15 -16 -13 -11 -14
-10 -9 4 5 14 24 23 24 12z m-43 -88 c-3 -8 -6 -5 -6 6 -1 11 2 17 5 13 3 -3
4 -12 1 -19z m-14 -43 c-3 -9 -8 -14 -10 -11 -3 3 -2 9 2 15 9 16 15 13 8 -4z
m-1505 -40 c-3 -3 -9 2 -12 12 -6 14 -5 15 5 6 7 -7 10 -15 7 -18z m1494 -35
c-2 -17 -9 -33 -15 -37 -7 -4 -8 0 -4 11 4 10 7 26 7 37 0 10 4 19 8 19 5 0 7
-14 4 -30z m-80 -92 c-7 -7 -12 -8 -12 -2 0 14 12 26 19 19 2 -3 -1 -11 -7
-17z m-924 -109 c-18 -12 -85 -12 -72 0 12 12 45 18 67 13 15 -4 16 -7 5 -13z
m-64 -37 c3 -5 -1 -9 -9 -9 -8 0 -12 4 -9 9 3 4 7 8 9 8 2 0 6 -4 9 -8z m76 4
c0 -2 -7 -7 -16 -10 -8 -3 -12 -2 -9 4 6 10 25 14 25 6z"/>
<path d="M8364 6611 c7 -10 31 -9 42 2 4 4 -5 7 -20 7 -15 0 -25 -4 -22 -9z"/>
<path d="M7502 5585 c-9 -19 -9 -25 1 -25 7 0 14 11 15 25 1 14 0 25 -2 25 -1
0 -8 -11 -14 -25z"/>
<path d="M6890 5336 c0 -9 5 -16 10 -16 6 0 10 4 10 9 0 6 -4 13 -10 16 -5 3
-10 -1 -10 -9z"/>
<path d="M7542 7330 c0 -14 2 -19 5 -12 2 6 2 18 0 25 -3 6 -5 1 -5 -13z"/>
<path d="M7485 7260 c4 -6 11 -8 16 -5 14 9 11 15 -7 15 -8 0 -12 -5 -9 -10z"/>
<path d="M3871 7184 c0 -11 3 -14 6 -6 3 7 2 16 -1 19 -3 4 -6 -2 -5 -13z"/>
<path d="M3897 7153 c-5 -8 -10 -73 -8 -105 1 -10 6 -18 11 -18 7 0 7 6 0 19
-6 13 -7 22 0 26 5 3 7 12 4 20 -3 7 -1 23 5 34 10 19 -1 41 -12 24z"/>
<path d="M6227 7014 c-1 -1 -77 -5 -168 -8 -91 -4 -177 -9 -190 -11 -45 -7
-135 -15 -214 -20 -77 -5 -108 -8 -205 -21 -65 -9 -88 -11 -154 -18 -32 -4
-62 -8 -66 -11 -4 -3 -32 -7 -61 -10 -30 -3 -79 -10 -109 -15 -81 -15 -201
-38 -230 -44 -23 -6 -51 -10 -110 -20 -53 -9 -398 -98 -442 -115 -14 -5 -28
-16 -30 -23 -3 -7 -6 -67 -7 -133 -1 -172 7 -178 169 -136 61 16 111 26 111
22 4 -22 3 -39 -3 -64 -4 -15 -9 -67 -13 -115 -3 -48 -8 -103 -11 -122 -6 -38
-12 -107 -19 -215 -3 -38 -7 -99 -11 -135 -9 -101 -12 -746 -3 -835 4 -44 10
-127 13 -185 3 -58 7 -118 10 -135 14 -97 16 -163 7 -187 -8 -20 -7 -36 4 -60
7 -18 16 -58 19 -88 3 -30 12 -82 21 -115 8 -33 17 -69 20 -79 2 -10 9 -33 14
-50 13 -39 19 -79 23 -133 1 -31 6 -43 17 -44 9 0 24 -2 34 -4 9 -2 17 0 17 5
0 4 8 6 18 3 10 -2 27 6 40 20 19 20 23 33 19 71 -3 39 -2 44 11 34 11 -10 13
-8 10 8 -2 13 2 18 13 16 18 -2 40 71 37 127 -1 19 4 37 10 39 7 2 9 8 6 14
-4 5 4 23 16 40 24 32 22 81 -5 122 -24 36 -29 128 -27 491 1 193 2 384 2 425
-1 41 0 95 1 120 7 212 2 491 -11 540 -13 51 -17 298 -6 356 5 25 -8 49 -22
40 -6 -3 -10 -19 -10 -35 1 -40 -24 -122 -37 -118 -9 3 -12 38 -17 182 0 28 2
65 7 82 6 29 14 35 58 48 28 8 78 20 111 26 34 6 75 15 91 21 17 6 53 14 81
18 29 4 61 11 72 14 16 6 148 31 207 40 128 20 166 30 300 77 44 16 101 30
126 32 25 2 51 7 57 11 7 4 12 5 12 3 0 -3 17 -1 38 4 20 5 64 11 97 14 76 8
94 13 76 24 -7 5 -51 7 -97 5 -62 -2 -84 1 -81 9 2 7 28 15 58 18 30 4 79 13
109 22 34 9 89 14 145 13 122 -3 152 7 160 53 l6 36 80 -1 c44 0 97 2 117 6
l37 6 -25 14 c-14 7 -54 15 -90 17 -36 1 -83 5 -105 8 -42 6 -125 12 -128 9z
m-417 -214 c0 -5 -11 -10 -23 -10 -13 0 -45 -6 -71 -14 -43 -13 -47 -13 -44 2
3 17 32 26 101 30 20 2 37 -2 37 -8z m-992 -49 c7 -1 11 -5 8 -10 -6 -9 -73
-26 -93 -22 -7 1 -23 -4 -35 -11 -32 -17 -46 -18 -52 -3 -4 11 52 34 96 39 3
1 10 4 14 8 4 4 16 6 28 3 12 -2 27 -4 34 -4z m122 2 c0 -1 -8 -7 -19 -12 -13
-7 -24 -6 -37 3 -16 12 -15 14 19 13 20 -1 37 -2 37 -4z m325 -43 c4 -6 -5
-10 -20 -10 -15 0 -24 4 -20 10 3 6 12 10 20 10 8 0 17 -4 20 -10z m-691 -25
c-9 -22 -35 -33 -63 -26 -19 5 -21 8 -10 18 13 10 40 19 66 22 7 1 10 -6 7
-14z m163 -600 c3 -54 1 -65 -12 -65 -17 0 -18 4 -15 75 3 93 21 86 27 -10z
m-17 -466 c0 -11 -4 -17 -10 -14 -5 3 -10 13 -10 21 0 8 5 14 10 14 6 0 10 -9
10 -21z m-126 -306 c-22 -16 -23 -14 -17 21 6 28 7 28 20 10 12 -16 11 -20 -3
-31z m-5 -115 c1 -14 -4 -28 -10 -30 -9 -3 -9 -10 0 -26 7 -12 11 -41 10 -65
-1 -23 3 -53 9 -67 7 -18 6 -34 -2 -55 -17 -42 -28 -18 -31 69 -2 39 -6 98 -9
130 -5 39 -3 70 6 90 l12 30 7 -24 c4 -14 7 -37 8 -52z"/>
<path d="M3870 6946 c0 -9 5 -16 10 -16 6 0 10 4 10 9 0 6 -4 13 -10 16 -5 3
-10 -1 -10 -9z"/>
<path d="M915 6833 c-61 -6 -95 -14 -91 -21 3 -4 -32 -7 -76 -7 -59 1 -81 -2
-85 -12 -4 -9 -9 -10 -18 -3 -8 7 -19 3 -35 -15 -13 -14 -30 -23 -38 -20 -23
9 -294 -139 -413 -225 -81 -58 -147 -127 -154 -160 -9 -41 3 -120 18 -120 7 0
25 19 41 42 72 101 139 159 237 205 14 6 40 -48 34 -68 -10 -30 -68 -82 -121
-108 -76 -38 -66 -9 19 53 20 16 37 34 37 41 0 7 10 16 23 20 20 7 21 7 3 12
-11 3 -25 -2 -31 -11 -7 -9 -16 -16 -21 -16 -14 -1 -70 -53 -77 -72 -4 -10
-13 -18 -22 -18 -9 0 -15 -9 -15 -25 0 -13 -11 -54 -24 -90 l-24 -66 31 -20
c18 -10 50 -28 72 -40 l40 -21 74 71 c40 40 75 70 77 68 4 -4 52 -165 59 -197
2 -8 16 -51 30 -95 15 -44 28 -87 30 -95 2 -8 13 -44 25 -80 12 -36 23 -72 25
-80 5 -21 85 -253 133 -385 60 -165 107 -277 171 -410 l57 -120 -18 -31 c-10
-18 -20 -51 -23 -75 -4 -42 -2 -46 48 -95 29 -28 68 -57 85 -65 25 -11 37 -26
51 -64 10 -27 30 -75 44 -105 13 -30 39 -89 57 -130 131 -304 306 -624 422
-773 36 -45 57 -39 29 8 -14 25 -16 32 -5 28 23 -9 16 17 -21 72 -34 53 -92
170 -181 370 -27 61 -60 135 -75 165 -21 44 -24 56 -12 58 8 2 22 -6 32 -17
10 -12 21 -21 25 -21 4 0 18 -7 32 -16 18 -12 22 -20 14 -29 -7 -9 -2 -35 19
-91 41 -112 117 -296 157 -382 19 -41 34 -79 34 -85 0 -8 4 -7 12 1 15 15 32
16 23 1 -4 -6 1 -17 11 -25 18 -14 18 -14 0 -7 -16 5 -13 -2 13 -40 65 -90
123 -123 63 -35 -16 24 -35 60 -43 81 -7 20 -17 37 -21 37 -4 0 -8 7 -8 16 0
25 23 10 33 -22 5 -16 16 -36 23 -45 8 -8 14 -23 14 -32 0 -8 12 -29 26 -47
21 -24 29 -28 40 -19 8 6 14 16 14 21 0 8 -32 86 -100 248 -10 25 -40 99 -65
165 -26 66 -51 129 -55 140 -4 11 -13 36 -20 55 -7 19 -16 44 -21 55 -10 22
-80 214 -83 230 -2 6 -6 17 -9 25 -19 45 -77 217 -77 226 0 6 20 17 45 24 24
7 42 16 40 21 -3 4 3 12 12 18 14 8 15 10 3 11 -9 0 -25 -7 -37 -15 -19 -13
-21 -13 -26 5 -5 19 15 45 26 34 8 -9 85 115 93 149 5 24 10 28 29 23 14 -4
25 -1 28 7 2 6 7 9 11 6 4 -4 -11 -33 -32 -65 -54 -82 -74 -122 -63 -129 15
-9 55 40 143 173 63 96 83 120 90 108 5 -9 21 -16 35 -16 26 0 26 -1 6 48 -3
7 0 10 9 7 10 -4 14 2 13 22 0 22 4 28 21 26 11 -1 21 3 21 10 1 70 53 287 69
294 17 6 18 29 2 37 -7 3 -3 3 10 0 12 -3 22 -1 22 5 0 6 -7 11 -15 11 -8 0
-15 3 -15 8 0 14 31 156 36 164 3 5 8 20 10 35 8 44 24 66 38 54 11 -9 10 -23
-4 -74 -24 -82 -38 -119 -56 -138 -17 -19 -3 -36 18 -23 8 5 9 0 6 -14 -4 -13
-1 -22 6 -22 8 0 45 99 51 140 1 3 8 30 17 60 15 49 47 185 63 265 11 61 19
163 19 260 0 184 -19 248 -113 388 -74 111 -104 138 -71 65 23 -52 18 -61 -12
-22 -13 16 -36 41 -51 55 -15 15 -30 37 -32 49 -5 27 -1 23 -50 50 -236 133
-355 187 -450 205 -82 16 -350 26 -440 18z m-203 -235 c-11 -11 -92 -21 -92
-11 0 14 84 40 92 28 4 -5 4 -13 0 -17z m-122 -33 c0 -26 -45 -36 -85 -19 -51
21 -43 32 25 33 47 0 60 -3 60 -14z m865 -60 c117 -29 244 -145 274 -252 13
-46 -7 -159 -51 -277 -84 -233 -156 -415 -214 -544 -13 -29 -24 -57 -24 -62 0
-6 -4 -10 -10 -10 -5 0 -10 -6 -10 -14 0 -23 -77 -150 -121 -200 -56 -63 -114
-93 -124 -63 -2 6 -43 134 -90 282 -48 149 -93 288 -100 310 -12 35 -74 232
-160 505 -15 47 -28 92 -30 100 -2 8 -13 37 -24 63 -26 59 -26 79 -3 106 24
29 64 33 102 10 l32 -20 54 22 c45 19 61 21 101 13 40 -8 57 -5 104 13 97 39
187 44 294 18z m598 -252 c17 -92 21 -101 39 -98 19 4 20 1 14 -88 -8 -117
-19 -217 -30 -272 -2 -11 -8 -49 -12 -85 -4 -36 -9 -68 -10 -72 -1 -5 -2 -17
-3 -28 -1 -13 -8 -20 -22 -20 -17 0 -20 4 -15 28 4 15 0 39 -8 55 -14 25 -13
32 10 82 31 68 38 97 36 158 -1 32 2 47 10 47 8 0 13 14 14 33 1 17 4 56 8 85
5 40 3 52 -7 52 -7 0 -18 -5 -24 -11 -7 -7 -13 -2 -21 18 -5 15 -13 36 -17 46
-5 12 -2 17 11 17 17 1 17 2 4 13 -10 8 -15 33 -16 80 -3 99 16 80 39 -40z
m-1877 -67 c-8 -20 -22 -36 -30 -36 -22 0 -20 5 9 34 16 16 23 31 18 43 -4 14
-3 15 6 7 10 -9 9 -19 -3 -48z m1594 -381 c0 -8 -4 -15 -8 -15 -5 0 -9 7 -9
15 0 8 4 15 9 15 4 0 8 -7 8 -15z m-30 -46 c0 -18 -3 -19 -15 -9 -12 10 -17 7
-26 -14 -15 -32 -29 -34 -24 -4 5 26 14 35 40 41 11 3 21 5 23 6 1 0 2 -9 2
-20z m120 -75 c-6 -14 -12 -38 -15 -53 -8 -48 -31 -95 -40 -81 -4 6 -3 16 3
22 8 8 6 15 -4 25 -8 8 -14 19 -14 24 0 9 68 89 76 89 2 0 -1 -11 -6 -26z
m-71 -15 c-9 -5 -15 -4 -18 2 -2 6 3 15 10 20 9 5 15 4 18 -2 2 -6 -3 -15 -10
-20z m-979 -81 c0 -6 -7 -5 -15 2 -8 7 -15 17 -15 22 0 6 7 5 15 -2 8 -7 15
-17 15 -22z m54 -185 c48 -161 64 -202 75 -185 5 9 12 -3 21 -35 7 -26 26 -76
41 -110 20 -46 25 -70 20 -90 -10 -36 5 -116 31 -166 10 -21 17 -41 14 -44 -7
-8 -34 49 -47 100 -6 26 -15 47 -20 47 -5 0 -9 4 -9 10 0 25 -44 124 -68 152
-20 23 -22 30 -9 25 23 -9 21 4 -5 33 -12 13 -23 31 -24 39 -2 9 -14 48 -27
86 -14 39 -23 80 -21 91 3 14 -8 35 -31 60 -19 21 -35 43 -35 48 1 6 12 -2 26
-19 l25 -30 -4 45 c-1 25 -6 51 -10 58 -5 7 -3 12 6 12 9 0 26 -43 51 -127z
m-94 -28 c0 -25 60 -195 89 -250 25 -47 26 -55 12 -55 -15 0 -48 71 -66 140
-2 8 -17 52 -33 97 -16 46 -27 85 -24 88 8 8 22 -5 22 -20z m145 -26 c11 -17
-1 -21 -15 -4 -8 9 -8 15 -2 15 6 0 14 -5 17 -11z m19 -305 c10 -25 -1 -29
-14 -5 -6 12 -7 21 -1 21 5 0 12 -7 15 -16z m-50 -33 c-6 -6 -24 19 -24 34 1
6 7 1 15 -9 8 -11 12 -22 9 -25z m27 17 c11 -21 11 -22 -4 -9 -10 7 -17 17
-17 22 0 15 9 10 21 -13z m-11 -73 c0 -5 -5 -3 -10 5 -5 8 -10 20 -10 25 0 6
5 3 10 -5 5 -8 10 -19 10 -25z m763 -27 c6 -20 -13 -66 -30 -72 -26 -10 -28 3
-4 25 14 13 21 29 18 40 -6 21 9 27 16 7z m-729 -57 c-6 -6 -24 19 -24 34 1 6
7 1 15 -9 8 -11 12 -22 9 -25z m696 -60 c0 -6 -10 -8 -21 -6 -33 6 -36 15 -6
15 15 0 27 -4 27 -9z m-536 -16 c3 -8 1 -15 -3 -15 -5 0 -11 7 -15 15 -3 8 -1
15 3 15 5 0 11 -7 15 -15z m-110 -51 c9 -24 2 -26 -12 -4 -7 11 -8 20 -3 20 5
0 12 -7 15 -16z m140 -40 c3 -7 0 -16 -5 -20 -6 -3 -2 -12 10 -21 12 -8 21
-20 21 -26 0 -7 -6 -5 -14 5 -10 13 -15 15 -24 6 -9 -9 -12 -9 -12 3 0 7 -6
26 -14 41 -8 15 -12 29 -9 31 8 9 42 -5 47 -19z m-169 -144 c3 -5 -1 -10 -9
-10 -9 0 -16 5 -16 10 0 6 4 10 9 10 6 0 13 -4 16 -10z m273 -110 c12 -22 19
-40 15 -40 -4 0 -18 18 -31 40 -12 22 -19 40 -15 40 4 0 18 -18 31 -40z m-54
15 c3 -8 1 -15 -4 -15 -6 0 -10 7 -10 15 0 8 2 15 4 15 2 0 6 -7 10 -15z m40
-82 c8 -21 31 -66 51 -100 34 -60 38 -83 8 -45 -13 17 -93 169 -93 178 0 2 4
4 9 4 5 0 16 -17 25 -37z m64 -49 c16 -28 33 -62 36 -75 4 -13 -11 8 -33 46
-22 39 -41 74 -41 79 0 13 4 8 38 -50z m72 -139 c0 -5 -5 -3 -10 5 -5 8 -10
20 -10 25 0 6 5 3 10 -5 5 -8 10 -19 10 -25z m-61 -16 c13 -39 14 -49 2 -49
-8 0 -31 52 -31 71 0 21 19 6 29 -22z m174 -264 c4 -8 2 -17 -3 -20 -6 -4 -10
3 -10 14 0 25 6 27 13 6z m54 -17 c-3 -8 -6 -5 -6 6 -1 11 2 17 5 13 3 -3 4
-12 1 -19z m33 -83 c7 -9 8 -15 2 -15 -5 0 -12 7 -16 15 -3 8 -4 15 -2 15 2 0
9 -7 16 -15z m30 -68 c0 -5 -4 -5 -10 -2 -5 3 -10 14 -10 23 0 15 2 15 10 2 5
-8 10 -19 10 -23z m32 -69 c8 -13 18 -34 22 -48 4 -15 -3 -7 -18 19 -14 23
-26 45 -26 47 0 10 9 2 22 -18z m8 -138 c6 -11 8 -20 6 -20 -3 0 -10 9 -16 20
-6 11 -8 20 -6 20 3 0 10 -9 16 -20z"/>
<path d="M990 6459 c-18 -8 -21 -12 -11 -18 19 -12 51 -2 44 15 -3 8 -6 14 -7
13 0 0 -12 -5 -26 -10z"/>
<path d="M940 5172 c6 -13 14 -21 18 -18 3 4 -2 14 -12 24 -18 16 -18 16 -6
-6z"/>
<path d="M974 5048 c3 -13 6 -26 6 -30 0 -4 6 -5 14 -2 11 4 11 10 2 30 -14
30 -30 32 -22 2z"/>
<path d="M9763 6779 c-47 -49 -158 -195 -333 -435 -47 -65 -89 -122 -95 -128
-23 -25 -71 -92 -83 -116 -7 -14 -10 -17 -7 -7 2 9 1 17 -3 17 -11 0 -32 -52
-25 -63 4 -6 0 -8 -10 -4 -12 5 -15 0 -11 -21 3 -20 2 -23 -5 -12 -9 13 -12
12 -25 -5 -9 -11 -16 -23 -16 -28 0 -4 -12 -26 -27 -50 -65 -101 -296 -555
-288 -567 2 -4 -4 -24 -14 -44 -22 -43 -88 -247 -94 -292 -3 -18 3 -49 14 -73
14 -32 23 -41 44 -41 16 0 25 6 25 16 0 17 58 80 66 71 3 -2 -7 -25 -21 -50
-42 -77 -29 -89 35 -31 48 43 192 257 256 379 60 115 309 525 392 645 175 255
393 581 423 634 32 57 32 59 10 53 -20 -5 -21 -4 -9 11 12 14 38 66 38 76 0 1
-10 2 -22 0 -13 -1 -32 -3 -43 -3 -12 -1 -30 -18 -44 -41 -28 -46 -40 -47 -17
-1 9 16 16 41 16 54 0 25 -53 107 -69 107 -5 0 -31 -23 -58 -51z m178 -192
c-10 -9 -11 -8 -5 6 3 10 9 15 12 12 3 -3 0 -11 -7 -18z m-158 -212 c-3 -9 -8
-14 -10 -11 -3 3 -2 9 2 15 9 16 15 13 8 -4z m-248 -227 c-4 -13 -29 -54 -56
-93 -26 -38 -96 -141 -155 -227 -59 -87 -109 -158 -111 -158 -2 0 -1 9 2 20 8
26 -2 25 -24 -2 -10 -12 -27 -22 -38 -23 -18 -1 -20 2 -11 27 6 15 13 28 17
28 4 0 13 12 19 26 7 15 17 22 24 18 7 -5 9 0 6 14 -6 23 7 31 15 10 5 -14 56
38 57 57 0 6 9 16 20 23 11 7 20 19 20 27 0 8 4 15 9 15 5 0 27 28 50 63 86
133 136 196 154 197 5 0 5 -10 2 -22z m-339 -316 c-17 -16 -18 -16 -5 5 7 12
15 20 18 17 3 -2 -3 -12 -13 -22z m100 -99 c-8 -15 -15 -25 -16 -21 0 12 23
58 27 54 3 -2 -2 -17 -11 -33z"/>
<path d="M3820 6539 c0 -5 5 -7 10 -4 6 3 10 8 10 11 0 2 -4 4 -10 4 -5 0 -10
-5 -10 -11z"/>
<path d="M3687 6515 c-20 -14 -39 -25 -43 -25 -4 0 -17 -9 -29 -20 -21 -20
-107 -46 -180 -54 -59 -6 -207 -43 -315 -79 -52 -17 -99 -32 -105 -33 -95 -23
-774 -318 -789 -342 -2 -4 -7 -38 -11 -75 -7 -75 2 -98 35 -90 30 8 24 -9 -19
-51 -35 -34 -42 -49 -61 -135 -23 -97 -50 -207 -69 -272 -6 -19 -24 -60 -39
-91 -24 -45 -28 -66 -26 -114 3 -59 10 -117 19 -164 3 -14 7 -41 9 -60 6 -49
54 -265 71 -324 8 -27 15 -54 15 -60 -1 -14 -20 19 -25 42 -2 9 -8 29 -14 44
-19 50 -60 215 -76 305 -15 85 -21 128 -29 221 -4 46 -13 64 -20 41 -21 -66
-26 -122 -20 -212 5 -89 3 -110 -15 -162 -24 -70 -22 -171 4 -212 16 -24 35
-31 35 -13 0 6 7 10 16 10 12 0 15 -6 10 -25 -4 -14 -1 -35 6 -48 7 -12 13
-26 14 -32 14 -56 87 -292 103 -333 55 -139 119 -236 168 -252 38 -13 49 -26
35 -43 -5 -7 -12 -34 -15 -62 -4 -27 -9 -61 -12 -75 -4 -14 -9 -61 -12 -105
-5 -75 -3 -82 20 -108 l24 -29 12 49 c17 69 33 106 41 93 9 -14 0 -70 -11 -70
-15 0 -10 -26 9 -43 10 -10 21 -17 24 -17 6 0 28 50 31 71 2 14 9 19 28 19 6
0 8 -17 4 -47 l-6 -48 16 31 c9 17 29 45 46 63 16 18 36 46 45 63 24 46 180
273 253 368 36 47 113 132 171 190 58 58 106 110 107 115 1 6 14 11 27 13 16
2 23 8 20 17 -6 16 31 39 47 29 8 -4 8 0 0 14 -12 23 -9 26 32 36 33 8 36 26
4 26 -13 0 -34 11 -46 24 -13 14 -36 30 -52 37 -27 10 -36 8 -89 -20 -72 -37
-77 -38 -58 -8 8 12 13 28 11 35 -6 17 -52 15 -59 -3 -4 -8 -14 -15 -23 -14
-10 0 -11 2 -3 6 6 2 12 8 12 13 0 5 -6 7 -12 6 -7 -1 -13 -5 -13 -8 0 -4 -9
-14 -20 -23 l-20 -15 20 7 c16 5 14 0 -9 -25 -32 -35 -44 -36 -26 -3 15 29 9
27 -40 -14 -23 -19 -46 -35 -50 -35 -15 0 -199 -187 -286 -291 -27 -32 -33
-36 -38 -22 -6 23 -35 142 -40 168 -12 59 -89 381 -91 383 -5 6 112 154 143
181 19 16 21 21 9 17 -10 -3 -23 -6 -28 -6 -5 0 -9 -6 -9 -14 0 -8 -7 -16 -14
-19 -11 -4 -13 -1 -9 11 8 24 163 172 179 172 8 0 14 5 14 11 0 5 -4 7 -10 4
-5 -3 -10 -1 -10 5 0 12 70 80 83 80 5 0 20 9 34 19 13 11 30 18 37 15 7 -3
36 11 65 30 28 19 58 33 66 29 11 -4 13 -1 9 11 -4 10 -18 16 -38 16 -17 0
-40 1 -51 2 -38 2 -71 -10 -188 -68 -110 -55 -118 -57 -134 -42 -16 16 -8 22
130 88 81 40 147 77 147 83 -1 31 -18 40 -62 34 -65 -10 -72 -12 -86 -21 -7
-4 -16 -6 -18 -3 -5 5 -31 -5 -164 -65 -52 -23 -172 -79 -182 -84 -3 -3 -11
19 -17 48 -6 29 -14 64 -17 78 -4 14 -8 74 -11 133 -3 88 -1 113 12 133 8 13
20 24 26 24 6 0 32 15 58 34 198 143 660 369 1076 526 199 74 290 104 320 102
11 -1 30 5 42 13 18 12 20 20 14 42 -9 32 -7 146 3 215 4 25 3 49 -2 52 -5 3
-25 -6 -45 -19z m-233 -142 c3 -7 0 -13 -7 -13 -7 0 -25 -9 -42 -21 l-30 -20
32 5 c17 2 37 7 42 11 6 3 18 2 27 -3 13 -7 9 -11 -20 -16 -20 -4 -38 -7 -41
-7 -2 0 -34 -11 -70 -24 -35 -13 -67 -20 -70 -16 -21 35 -341 -89 -785 -302
-102 -49 -138 -62 -148 -54 -11 9 -10 12 7 19 12 4 21 13 21 19 0 7 3 10 6 6
3 -3 45 14 92 38 170 84 563 248 817 340 55 19 109 39 120 44 28 11 43 10 49
-6z m226 -102 c0 -12 -17 -17 -70 -20 -54 -3 -50 6 6 15 21 3 41 8 43 10 8 7
21 4 21 -5z m-120 -31 c0 -5 -17 -9 -37 -9 -38 1 -38 1 -8 9 43 11 45 11 45 0z
m-100 -28 c0 -4 -12 -9 -27 -10 -22 -1 -24 0 -13 8 18 12 40 13 40 2z m-102
-43 c-19 -13 -28 -11 -28 5 0 9 7 12 21 9 16 -4 17 -8 7 -14z m-158 -55 c0 -3
-16 -11 -34 -19 -19 -8 -79 -36 -133 -63 -110 -54 -133 -64 -133 -56 0 4 127
66 270 131 31 14 30 14 30 7z m-803 -360 c-3 -3 -12 -4 -19 -1 -8 3 -5 6 6 6
11 1 17 -2 13 -5z m-280 -716 c-3 -7 -5 -2 -5 12 0 14 2 19 5 13 2 -7 2 -19 0
-25z m204 -9 c-44 -26 -52 -24 -16 5 16 13 34 22 38 19 5 -3 -5 -14 -22 -24z
m-172 -69 c14 -12 11 -32 -4 -27 -20 8 -19 -1 7 -43 25 -42 51 -120 38 -120
-4 0 -11 17 -15 38 -7 41 -28 84 -23 47 1 -11 -1 -26 -6 -33 -4 -7 -2 -19 5
-28 9 -11 9 -18 1 -26 -8 -8 -16 -5 -31 13 -10 13 -15 27 -10 30 9 5 8 16 -8
57 -15 40 -5 94 11 60 3 -7 4 6 1 30 -7 54 5 77 18 37 6 -17 13 -32 16 -35z
m61 -221 c0 -5 -4 -9 -10 -9 -5 0 -10 7 -10 16 0 8 5 12 10 9 6 -3 10 -10 10
-16z m96 -219 c9 -47 17 -101 18 -120 0 -19 4 -37 8 -40 4 -3 10 -21 13 -40
10 -55 -9 -23 -33 55 -28 90 -37 153 -33 219 2 34 10 12 27 -74z m-108 -42
c10 -25 9 -28 -7 -28 -12 0 -26 12 -34 29 -12 25 -12 29 -1 24 8 -3 14 -14 14
-25 0 -10 4 -17 10 -13 6 4 5 16 -1 33 -13 34 3 17 19 -20z m-18 -48 c0 -5 -2
-10 -4 -10 -3 0 -8 5 -11 10 -3 6 -1 10 4 10 6 0 11 -4 11 -10z m55 -65 c9
-36 21 -68 26 -71 5 -3 9 -15 9 -27 -1 -20 -2 -20 -11 -4 -6 9 -14 15 -18 12
-10 -6 -66 123 -57 133 4 3 11 0 17 -8 7 -11 8 -6 3 14 -14 59 13 16 31 -49z
m585 -39 c0 -2 -12 -17 -27 -34 -25 -26 -99 -109 -161 -179 -14 -17 -20 -33
-16 -46 4 -12 2 -17 -4 -13 -15 9 -26 -12 -14 -27 5 -7 12 -21 14 -32 4 -18 7
-16 36 15 17 19 47 55 67 78 19 24 35 42 35 39 0 -3 -23 -42 -51 -87 -28 -45
-48 -85 -45 -88 4 -3 13 3 21 14 8 10 15 14 15 8 0 -20 -47 -67 -60 -59 -8 5
-11 4 -6 -3 4 -7 -4 -10 -24 -10 -35 1 -33 -1 -19 32 9 20 9 29 -1 41 -16 19
-30 19 -30 -1 0 -8 -4 -12 -10 -9 -13 8 -13 -8 1 -22 8 -8 7 -13 -3 -18 -7 -5
-10 -5 -6 0 4 4 3 14 -3 21 -23 28 94 197 224 326 54 54 67 64 67 54z m-453
-98 c-3 -8 -6 -5 -6 6 -1 11 2 17 5 13 3 -3 4 -12 1 -19z m-89 -73 c-3 -3 -9
2 -12 12 -6 14 -5 15 5 6 7 -7 10 -15 7 -18z m138 -67 c14 -28 15 -31 2 -20
-14 11 -31 52 -22 52 2 0 11 -15 20 -32z m-96 -170 c0 -6 -7 -5 -15 2 -8 7
-15 17 -15 22 0 6 7 5 15 -2 8 -7 15 -17 15 -22z"/>
<path d="M7043 6515 c0 -8 7 -17 15 -20 19 -7 24 -2 16 19 -8 20 -31 21 -31 1z"/>
<path d="M6947 6234 c-8 -8 1 -24 12 -24 4 0 8 7 8 15 0 16 -9 20 -20 9z"/>
<path d="M6152 6000 c0 -14 2 -19 5 -12 2 6 2 18 0 25 -3 6 -5 1 -5 -13z"/>
<path d="M7646 5131 c-4 -5 -2 -12 3 -15 5 -4 12 -2 15 3 4 5 2 12 -3 15 -5 4
-12 2 -15 -3z"/>
<path d="M2738 5088 c-48 -22 -85 -44 -83 -48 3 -5 44 8 92 28 103 42 99 40
87 52 -5 5 -43 -7 -96 -32z"/>
<path d="M2623 5033 c-18 -6 -16 -23 1 -23 17 0 30 16 19 23 -5 2 -14 2 -20 0z"/>
<path d="M8691 4650 c-121 -34 -359 -218 -414 -318 -32 -58 -46 -135 -27 -147
7 -4 15 -3 19 2 8 13 41 13 41 0 0 -5 -9 -11 -20 -14 -20 -5 -24 -15 -20 -43
3 -26 9 -25 45 10 19 18 38 31 41 27 4 -3 -7 -20 -25 -36 -17 -16 -31 -33 -31
-38 0 -16 52 -35 63 -24 6 6 16 6 27 -1 13 -9 24 -6 51 13 19 13 36 26 39 29
18 18 257 205 310 242 130 92 187 166 168 219 -9 25 -12 27 -41 17 -18 -5 -43
-9 -57 -8 -14 1 -31 2 -38 3 -9 0 -11 8 -8 22 7 26 -19 65 -42 64 -9 0 -46 -9
-81 -19z m-25 -146 c-9 -6 -16 -18 -16 -26 0 -8 -16 -22 -36 -31 -19 -10 -32
-22 -29 -27 3 -5 0 -7 -9 -4 -13 5 -76 -20 -76 -31 0 -2 5 -15 11 -28 8 -18 8
-30 0 -43 -10 -18 -10 -18 -12 1 -1 11 -1 29 0 40 1 15 -14 4 -55 -40 -53 -55
-57 -57 -50 -30 12 54 221 236 267 232 18 -1 18 -3 5 -13z"/>
<path d="M5917 3733 c-1 0 -103 -4 -227 -7 -403 -11 -581 -20 -599 -30 -3 -2
-35 -7 -71 -10 -36 -4 -78 -9 -95 -11 -16 -3 -51 -7 -77 -9 -26 -3 -76 -10
-110 -15 -35 -5 -85 -12 -113 -16 -27 -3 -104 -15 -170 -26 -66 -11 -131 -22
-145 -24 -14 -2 -34 -6 -45 -9 -11 -2 -54 -11 -95 -20 -41 -9 -113 -25 -160
-37 -47 -11 -96 -23 -110 -25 -14 -3 -33 -7 -42 -10 -9 -3 -25 -7 -35 -9 -62
-14 -220 -57 -288 -78 -44 -14 -143 -45 -220 -70 -118 -37 -353 -122 -432
-157 -13 -6 -33 -14 -45 -19 -320 -135 -623 -281 -644 -310 -17 -22 1 -51 32
-51 26 0 36 -15 50 -85 7 -30 14 -41 30 -43 12 -2 67 20 124 47 56 28 108 51
115 51 12 0 72 26 205 88 30 14 57 26 60 27 3 1 38 18 79 38 72 36 119 48 106
27 -4 -6 -43 -28 -88 -49 -45 -21 -98 -51 -117 -65 -19 -15 -52 -31 -73 -37
-21 -5 -55 -25 -75 -43 -20 -17 -71 -49 -112 -70 -119 -61 -143 -77 -131 -89
7 -7 21 -7 46 0 26 8 43 8 65 0 42 -16 131 18 246 94 85 56 382 197 502 240
42 15 52 15 52 4 0 -8 15 -17 38 -21 20 -4 45 -8 54 -10 9 -1 115 31 235 72
120 42 223 76 228 78 6 1 42 12 80 23 227 67 501 133 620 148 11 2 38 8 60 13
22 6 51 13 65 16 14 3 61 12 105 21 43 8 104 18 135 21 30 2 69 9 85 14 17 5
65 12 107 15 42 3 94 11 115 19 21 7 85 14 143 15 126 3 205 8 245 17 43 9
763 17 820 9 37 -5 171 -14 311 -20 59 -3 110 -7 113 -10 10 -6 82 -14 171
-19 84 -6 174 -15 206 -21 12 -3 39 -7 60 -10 21 -4 55 -10 74 -15 19 -4 58
-8 87 -8 28 0 61 -6 73 -12 12 -6 43 -13 68 -16 26 -2 58 -6 72 -9 58 -11 233
-18 227 -8 -5 8 -95 38 -142 47 -80 16 -136 34 -164 53 -19 13 -39 23 -45 24
-6 0 -18 2 -26 4 -91 23 -260 52 -310 54 -35 1 -71 6 -79 10 -9 5 -67 11 -129
14 -63 3 -117 8 -120 12 -12 12 31 35 57 30 14 -3 62 -9 106 -15 44 -6 98 -13
120 -16 22 -3 56 -7 75 -9 19 -2 72 -11 118 -19 46 -8 118 -15 160 -15 42 1
122 -9 176 -20 93 -20 136 -20 136 -1 0 9 -31 20 -85 27 -64 9 -209 53 -220
67 -9 11 -70 31 -135 42 -14 3 -43 10 -65 16 -22 6 -47 13 -55 15 -8 3 -53 6
-100 8 -78 2 -122 8 -190 21 -14 3 -48 5 -76 4 -28 0 -71 6 -95 14 -24 8 -57
17 -74 20 -55 11 -220 10 -240 -1 -15 -8 -30 -8 -60 3 -22 7 -56 12 -75 10
-19 -3 -52 -5 -72 -5 -27 -1 -38 -6 -43 -21 -6 -18 -15 -20 -146 -19 -144 1
-225 13 -269 41 -21 14 -57 16 -227 14 -162 -2 -203 1 -208 11 -15 41 224 53
810 40 127 -3 241 -7 255 -10 14 -3 65 -8 113 -11 49 -4 110 -9 136 -11 25 -3
86 -7 133 -10 104 -5 170 -13 219 -26 46 -11 217 -21 242 -13 18 6 19 29 1 30
-5 0 -36 4 -69 8 -33 4 -76 10 -95 12 -61 7 -134 16 -155 20 -11 2 -58 6 -105
9 -122 8 -191 14 -221 21 -27 5 -51 7 -259 20 -99 6 -489 12 -493 7z m509
-151 c-16 -2 -32 0 -37 5 -5 5 7 7 29 4 34 -5 35 -6 8 -9z m248 -3 c-7 -12
-54 -12 -54 0 0 11 30 19 47 13 7 -2 10 -8 7 -13z m-596 -59 c116 2 352 -7
393 -15 14 -3 69 -8 123 -10 98 -5 128 -11 107 -24 -6 -4 -105 -5 -221 -4
-179 3 -209 2 -204 -10 4 -12 -4 -15 -40 -14 -25 0 -44 3 -43 6 1 3 -2 7 -8 8
-5 0 -9 -2 -8 -6 1 -4 -56 -7 -128 -7 -71 1 -129 -2 -129 -5 0 -11 -52 3 -56
16 -3 8 -24 11 -59 10 -30 -2 -55 1 -55 5 0 14 92 41 160 47 36 3 67 7 69 9 2
2 8 1 13 -2 5 -3 44 -5 86 -4z m1339 -26 c-3 -3 -12 -4 -19 -1 -8 3 -5 6 6 6
11 1 17 -2 13 -5z m-1679 -45 c1 -8 -5 -15 -15 -16 -199 -17 -293 -15 -293 6
0 4 28 8 63 8 34 1 98 5 142 10 93 12 99 11 103 -8z m-468 -28 c0 -21 -34 -32
-109 -36 -45 -3 -81 -1 -81 4 0 12 98 39 148 40 23 1 42 -3 42 -8z m-524 -82
c3 -5 -2 -9 -10 -9 -9 0 -18 0 -21 -1 -2 -1 -40 -9 -84 -19 -43 -9 -84 -14
-91 -10 -23 14 24 29 109 34 19 1 36 7 38 12 4 12 50 6 59 -7z m-1472 -279
c-20 -20 -253 -114 -261 -106 -9 9 137 80 217 107 70 23 68 23 44 -1z"/>
<path d="M6153 3629 c-14 -4 -11 -7 10 -13 23 -5 67 6 67 18 0 6 -58 2 -77 -5z"/>
<path d="M2461 3466 c-7 -8 -8 -17 -3 -20 6 -3 13 1 16 10 9 23 2 28 -13 10z"/>
</g>
</svg>
